:FULLY-SPECIFIED
:FORCE-ALL-JOINTS-BE-3DOF
:DEGREES
442
root 1.48949 15.2316 -9.1147 5.49212 4.83139 -13.5423
lfemur -46.8501 16.8114 3.9745
ltibia 62.9553 0 0
lfoot -24.9916 -10.2701 0
ltoes -12.7255 0 0
rfemur -14.9411 -3.44768 8.90199
rtibia 38.8284 0 0
rfoot -14.6389 -13.9723 0
rtoes -49.791 0 0
lowerback 6.02945 1.6015 4.3986
upperback 1.01281 2.43843 0.924751
thorax -2.1908 1.18676 -1.7001
lowerneck -7.15866 0.0337935 5.62298
upperneck 0.687406 -0.434285 0.0690367
head 1.41974 -0.189785 -0.949097
lclavicle 2.90226e-14 6.36111e-15 0
lhumerus -39.6318 -28.4329 97.6213
lradius 54.1431 0 0
lwrist 7.92235 0 0
lhand -20.0855 -1.30814 0
lfingers 7.12502 0 0
lthumb 6.25724 28.5794 0
rclavicle 2.90226e-14 6.36111e-15 0
rhumerus -48.3514 -2.52445 -89.7222
rradius 66.3347 0 0
rwrist 12.906 0 0
rhand -30.9208 -29.1118 0
rfingers 7.12502 0 0
rthumb -4.20662 -779.05 0
443
root 1.49652 15.2365 -9.10556 5.48251 5.08534 -13.5398
lfemur -46.8852 16.8174 3.82323
ltibia 62.9139 0 0
lfoot -24.9609 -10.2194 0
ltoes -12.5591 0 0
rfemur -14.8554 -3.44237 8.93241
rtibia 38.8281 0 0
rfoot -14.3797 -13.9757 0
rtoes -49.7771 0 0
lowerback 5.9919 1.59213 4.40557
upperback 1.00078 2.42451 0.93367
thorax -2.183 1.17985 -1.69364
lowerneck -7.16511 0.00473433 5.60322
upperneck 0.701496 -0.471817 0.0721813
head 1.42503 -0.208313 -0.946396
lclavicle 2.84517e-14 6.1778e-15 0
lhumerus -39.6785 -28.4029 97.6725
lradius 54.1268 0 0
lwrist 7.87767 0 0
lhand -20.1114 -1.38403 0
lfingers 7.12502 0 0
lthumb 6.23226 28.504 0
rclavicle 2.84517e-14 6.1778e-15 0
rhumerus -48.3958 -2.53023 -89.6616
rradius 66.3066 0 0
rwrist 12.8902 0 0
rhand -30.9241 -29.1171 0
rfingers 7.12502 0 0
rthumb -4.20981 -779.055 0
444
root 1.51667 15.2505 -9.07934 5.45492 5.81387 -13.5327
lfemur -46.9861 16.8347 3.38927
ltibia 62.7952 0 0
lfoot -24.8729 -10.074 0
ltoes -12.0816 0 0
rfemur -14.6095 -3.42713 9.01969
rtibia 38.8272 0 0
rfoot -13.6362 -13.9856 0
rtoes -49.7373 0 0
lowerback 5.88417 1.56525 4.42555
upperback 0.96625 2.38458 0.959259
thorax -2.16062 1.16002 -1.67511
lowerneck -7.18363 -0.0786321 5.54653
upperneck 0.74192 -0.579492 0.0812027
head 1.44022 -0.261468 -0.938646
lclavicle 2.6814e-14 5.65192e-15 0
lhumerus -39.8127 -28.317 97.8196
lradius 54.0799 0 0
lwrist 7.7495 0 0
lhand -20.1856 -1.60174 0
lfingers 7.12502 0 0
lthumb 6.16059 28.2878 0
rclavicle 2.6814e-14 5.65192e-15 0
rhumerus -48.5232 -2.5468 -89.4876
rradius 66.2258 0 0
rwrist 12.8447 0 0
rhand -30.9336 -29.1321 0
rfingers 7.12502 0 0
rthumb -4.21897 -779.07 0
445
root 1.54857 15.2728 -9.03784 5.41126 6.96704 -13.5214
lfemur -47.1457 16.8621 2.70236
ltibia 62.6073 0 0
lfoot -24.7336 -9.8438 0
ltoes -11.3257 0 0
rfemur -14.2202 -3.403 9.15783
rtibia 38.8259 0 0
rfoot -12.4593 -14.0012 0
rtoes -49.6743 0 0
lowerback 5.71365 1.5227 4.45719
upperback 0.9116 2.32138 0.999761
thorax -2.12519 1.12863 -1.64578
lowerneck -7.21294 -0.210589 5.4568
upperneck 0.805905 -0.749925 0.0954824
head 1.46426 -0.345604 -0.926379
lclavicle 2.42216e-14 4.81952e-15 0
lhumerus -40.0249 -28.181 98.0523
lradius 54.0057 0 0
lwrist 7.54662 0 0
lhand -20.3031 -1.94635 0
lfingers 7.12502 0 0
lthumb 6.04715 27.9455 0
rclavicle 2.42216e-14 4.81952e-15 0
rhumerus -48.7248 -2.57304 -89.2123
rradius 66.098 0 0
rwrist 12.7727 0 0
rhand -30.9486 -29.156 0
rfingers 7.12502 0 0
rthumb -4.23346 -779.094 0
446
root 1.59084 15.3022 -8.98285 5.35342 8.49488 -13.5064
lfemur -47.3571 16.8983 1.79227
ltibia 62.3583 0 0
lfoot -24.5491 -9.53883 0
ltoes -10.3244 0 0
rfemur -13.7045 -3.37104 9.34086
rtibia 38.824 0 0
rfoot -10.9 -14.0219 0
rtoes -49.5908 0 0
lowerback 5.48773 1.46633 4.4991
upperback 0.839195 2.23764 1.05342
thorax -2.07825 1.08705 -1.60691
lowerneck -7.25178 -0.385421 5.33791
upperneck 0.890679 -0.975734 0.114402
head 1.49611 -0.457076 -0.910127
lclavicle 2.0787e-14 3.71666e-15 0
lhumerus -40.3062 -28.0007 98.3606
lradius 53.9075 0 0
lwrist 7.27782 0 0
lhand -20.4587 -2.40292 0
lfingers 7.12502 0 0
lthumb 5.89684 27.492 0
rclavicle 2.0787e-14 3.71666e-15 0
rhumerus -48.992 -2.60779 -88.8475
rradius 65.9287 0 0
rwrist 12.6773 0 0
rhand -30.9685 -29.1876 0
rfingers 7.12502 0 0
rthumb -4.25266 -779.125 0
447
root 1.64209 15.3379 -8.91618 5.28328 10.3474 -13.4883
lfemur -47.6135 16.9422 0.688755
ltibia 62.0564 0 0
lfoot -24.3253 -9.16904 0
ltoes -9.11014 0 0
rfemur -13.0792 -3.33229 9.56279
rtibia 38.8218 0 0
rfoot -9.00929 -14.047 0
rtoes -49.4895 0 0
lowerback 5.2138 1.39798 4.54992
upperback 0.751401 2.13611 1.11849
thorax -2.02133 1.03663 -1.55979
lowerneck -7.29887 -0.59741 5.19375
upperneck 0.99347 -1.24953 0.137342
head 1.53472 -0.59224 -0.890421
lclavicle 1.66224e-14 2.37941e-15 0
lhumerus -40.6472 -27.7822 98.7345
lradius 53.7883 0 0
lwrist 6.9519 0 0
lhand -20.6475 -2.95654 0
lfingers 7.12502 0 0
lthumb 5.7146 26.9422 0
rclavicle 1.66224e-14 2.37941e-15 0
rhumerus -49.3159 -2.64994 -88.4053
rradius 65.7234 0 0
rwrist 12.5617 0 0
rhand -30.9926 -29.226 0
rfingers 7.12502 0 0
rthumb -4.27594 -779.163 0
448
root 1.70094 15.3789 -8.83962 5.20274 12.4748 -13.4675
lfemur -47.9079 16.9927 -0.578427
ltibia 61.7098 0 0
lfoot -24.0683 -8.7444 0
ltoes -7.71584 0 0
rfemur -12.3611 -3.28778 9.81763
rtibia 38.8193 0 0
rfoot -6.83817 -14.0758 0
rtoes -49.3733 0 0
lowerback 4.89923 1.3195 4.60827
upperback 0.650586 2.01952 1.19321
thorax -1.95597 0.978728 -1.50567
lowerneck -7.35294 -0.84084 5.02821
upperneck 1.11151 -1.56394 0.163684
head 1.57907 -0.747451 -0.867792
lclavicle 1.18402e-14 8.4383e-16 0
lhumerus -41.0388 -27.5313 99.1638
lradius 53.6515 0 0
lwrist 6.57763 0 0
lhand -20.8642 -3.59226 0
lfingers 7.12502 0 0
lthumb 5.50532 26.3107 0
rclavicle 1.18402e-14 8.4383e-16 0
rhumerus -49.6878 -2.69834 -87.8974
rradius 65.4877 0 0
rwrist 12.4289 0 0
rhand -31.0203 -29.27 0
rfingers 7.12502 0 0
rthumb -4.30268 -779.206 0
449
root 1.76601 15.4242 -8.75496 5.11369 14.8269 -13.4444
lfemur -48.2334 17.0485 -1.97952
ltibia 61.3265 0 0
lfoot -23.7842 -8.27489 0
ltoes -6.1742 0 0
rfemur -11.5671 -3.23858 10.0994
rtibia 38.8165 0 0
rfoot -4.43762 -14.1076 0
rtoes -49.2447 0 0
lowerback 4.55142 1.23271 4.6728
upperback 0.539118 1.8906 1.27582
thorax -1.88371 0.91471 -1.44584
lowerneck -7.41272 -1.10999 4.84518
upperneck 1.24202 -1.91158 0.192811
head 1.6281 -0.919064 -0.842772
lclavicle 6.55255e-15 -8.54026e-16 0
lhumerus -41.4718 -27.2538 99.6385
lradius 53.5002 0 0
lwrist 6.16382 0 0
lhand -21.1038 -4.29516 0
lfingers 7.12502 0 0
lthumb 5.27393 25.6126 0
rclavicle 6.55255e-15 -8.54026e-16 0
rhumerus -50.0991 -2.75185 -87.3358
rradius 65.2271 0 0
rwrist 12.2821 0 0
rhand -31.0509 -29.3187 0
rfingers 7.12502 0 0
rthumb -4.33224 -779.254 0
450
root 1.83592 15.4729 -8.66402 5.01802 17.3539 -13.4197
lfemur -48.5832 17.1084 -3.48476
ltibia 60.9147 0 0
lfoot -23.4789 -7.77048 0
ltoes -4.51796 0 0
rfemur -10.7141 -3.18572 10.4021
rtibia 38.8135 0 0
rfoot -1.85862 -14.1418 0
rtoes -49.1066 0 0
lowerback 4.17776 1.13948 4.74212
upperback 0.419363 1.75211 1.36458
thorax -1.80607 0.845932 -1.38156
lowerneck -7.47695 -1.39916 4.64855
upperneck 1.38223 -2.28506 0.224102
head 1.68077 -1.10343 -0.815891
lclavicle 8.71864e-16 -2.67809e-15 0
lhumerus -41.937 -26.9557 100.148
lradius 53.3377 0 0
lwrist 5.71924 0 0
lhand -21.3613 -5.05031 0
lfingers 7.12502 0 0
lthumb 5.02534 24.8626 0
rclavicle 8.71864e-16 -2.67809e-15 0
rhumerus -50.541 -2.80933 -86.7325
rradius 64.947 0 0
rwrist 12.1244 0 0
rhand -31.0838 -29.3711 0
rfingers 7.12502 0 0
rthumb -4.36399 -779.306 0
